<?xml version="1.0" encoding="utf-8"?>
<!-- Generator: Adobe Illustrator 27.0.0, SVG Export Plug-In . SVG Version: 6.00 Build 0)  -->
<svg version="1.1" id="Camada_1" xmlns="http://www.w3.org/2000/svg" xmlns:xlink="http://www.w3.org/1999/xlink" x="0px" y="0px"
	 viewBox="0 0 316 316" style="enable-background:new 0 0 316 316;" xml:space="preserve">
<style type="text/css">
	.st0{fill:#CCCCCC;}
</style>
<g id="Camada_1_00000170990111619070512510000010588465976917850754_">
	<g>
		<path class="st0" d="M316,158c0,1.9,0,3.8-0.1,5.6c-1.9,54.1-31,101.3-74.1,128.3c-1.6,1-3.2,2-4.8,2.9c-1.6,0.9-3.3,1.9-4.9,2.7
			C210,309.3,184.8,316,158,316c-26.8,0-52-6.6-74.1-18.4c-1.6-0.9-3.3-1.8-4.9-2.7c-1.6-0.9-3.2-1.9-4.8-2.9
			C31.1,264.9,2,217.7,0.1,163.6c0-1.9-0.1-3.8-0.1-5.6s0-3.8,0.1-5.6C2,98.3,31.1,51.1,74.2,24.1c1.6-1,3.2-2,4.8-2.9
			c1.6-0.9,3.2-1.8,4.9-2.7C106,6.7,131.2,0,158,0c26.7,0,52,6.6,74.1,18.4c1.6,0.9,3.3,1.8,4.9,2.7c1.6,0.9,3.2,1.9,4.8,2.9
			c43.1,27,72.2,74.2,74.1,128.3C315.9,154.2,316,156.1,316,158z"/>
	</g>
</g>
</svg>
