<?xml version="1.0" encoding="utf-8"?>
<!-- Generator: Adobe Illustrator 27.0.0, SVG Export Plug-In . SVG Version: 6.00 Build 0)  -->
<svg version="1.1" xmlns="http://www.w3.org/2000/svg" xmlns:xlink="http://www.w3.org/1999/xlink" x="0px" y="0px"
	 viewBox="0 0 820.42 1080" style="enable-background:new 0 0 820.42 1080;" xml:space="preserve">
<style type="text/css">
	.st0{fill:#CCCCCC;}
	.st1{fill:#2D3D54;}
	.st2{fill:#E6E6E6;}
</style>
<g id="Camada_1">
	<g>
		<path class="st0" d="M579.04,613.39c0,1.87-0.04,3.75-0.08,5.62c-1.91,54.12-31.01,101.31-74.08,128.35
			c-1.57,0.97-3.18,1.95-4.79,2.88c-1.65,0.94-3.3,1.87-4.94,2.73c-22.13,11.76-47.34,18.43-74.08,18.43
			c-26.78,0-51.98-6.63-74.12-18.43c-1.65-0.9-3.3-1.8-4.91-2.73c-1.61-0.94-3.22-1.91-4.79-2.88
			c-43.11-27-72.21-74.23-74.12-128.35c-0.04-1.87-0.07-3.75-0.07-5.62c0-1.87,0.04-3.75,0.07-5.62
			c1.91-54.08,31.05-101.27,74.12-128.27c1.57-1.01,3.18-1.98,4.83-2.92c1.61-0.94,3.22-1.83,4.87-2.73
			c22.1-11.76,47.34-18.43,74.12-18.43c26.74,0,51.98,6.63,74.08,18.43c1.65,0.9,3.3,1.8,4.91,2.73c1.61,0.94,3.22,1.91,4.79,2.88
			c43.07,27,72.21,74.19,74.12,128.31C579,609.64,579.04,611.52,579.04,613.39z"/>
	</g>
</g>
<g id="Camada_2">
	<g>
		<polygon class="st1" points="421.05,164.56 373.14,628.73 421.05,593.99 468.96,628.73 		"/>
		<g>
			<circle class="st2" cx="421.05" cy="613.41" r="57.53"/>
		</g>
	</g>
</g>
</svg>
