<?xml version="1.0" encoding="utf-8"?>
<!-- Generator: Adobe Illustrator 27.0.0, SVG Export Plug-In . SVG Version: 6.00 Build 0)  -->
<svg version="1.1" id="Camada_1" xmlns="http://www.w3.org/2000/svg" xmlns:xlink="http://www.w3.org/1999/xlink" x="0px" y="0px"
	 viewBox="0 0 316 612.9" style="enable-background:new 0 0 316 612.9;" xml:space="preserve">
<style type="text/css">
	.st0{fill:#CCCCCC;}
	.st1{fill:#2D3D54;}
	.st2{fill:#E6E6E6;}
</style>
<g id="Camada_1_00000170990111619070512510000010588465976917850754_">
	<g>
		<path class="st0" d="M316,454.9c0,1.9,0,3.8-0.1,5.6c-1.9,54.1-31,101.3-74.1,128.3c-1.6,1-3.2,2-4.8,2.9
			c-1.6,0.9-3.3,1.9-4.9,2.7c-22.1,11.8-47.3,18.4-74.1,18.4c-26.8,0-52-6.6-74.1-18.4c-1.6-0.9-3.3-1.8-4.9-2.7
			c-1.6-0.9-3.2-1.9-4.8-2.9C31.1,561.9,2,514.7,0.1,460.5c0-1.9-0.1-3.8-0.1-5.6s0-3.8,0.1-5.6C2,395.2,31.1,348,74.2,321
			c1.6-1,3.2-2,4.8-2.9c1.6-0.9,3.2-1.8,4.9-2.7C106,303.6,131.2,297,158,297c26.7,0,52,6.6,74.1,18.4c1.6,0.9,3.3,1.8,4.9,2.7
			c1.6,0.9,3.2,1.9,4.8,2.9c43.1,27,72.2,74.2,74.1,128.3C315.9,451.2,316,453.1,316,454.9z"/>
	</g>
</g>
<g id="Camada_2_00000167355873808518280360000013009271070827927970_">
	<g>
		<polygon class="st1" points="158,6.1 110.1,470.3 158,435.5 205.9,470.3 		"/>
		<g>
			<circle class="st2" cx="158" cy="454.9" r="57.5"/>
		</g>
	</g>
</g>
</svg>
