<?xml version="1.0" encoding="utf-8"?>
<!-- Generator: Adobe Illustrator 27.0.0, SVG Export Plug-In . SVG Version: 6.00 Build 0)  -->
<svg version="1.1" xmlns="http://www.w3.org/2000/svg" xmlns:xlink="http://www.w3.org/1999/xlink" x="0px" y="0px"
	 viewBox="0 0 1216.62 1080" style="enable-background:new 0 0 1216.62 1080;" xml:space="preserve">
<style type="text/css">
	.st0{fill:#FF3200;}
	.st1{fill:#FFAD01;}
	.st2{fill:#C4D700;}
	.st3{fill:#01BF11;}
</style>
<g id="red">
	<path class="st0" d="M487.92,593.83c-37.19,37.19-60.18,88.55-60.18,145.27H124.23c0-140.54,56.98-267.78,149.07-359.88
		L487.92,593.83z"/>
</g>
<g id="yellow">
	<path class="st1" d="M633.19,230.15v303.5c-56.74,0-108.1,23.01-145.27,60.18L273.29,379.22
		C365.41,287.11,492.64,230.15,633.19,230.15z"/>
</g>
<g id="light_green">
	<path class="st2" d="M993.07,379.22L778.45,593.84c-37.15-37.19-88.52-60.19-145.26-60.19v-303.5
		C773.73,230.15,900.97,287.11,993.07,379.22z"/>
</g>
<g id="dark_green">
	<path class="st3" d="M1142.14,739.1H838.62c0-56.7-22.99-108.07-60.18-145.26l214.63-214.63
		C1085.18,471.32,1142.14,598.56,1142.14,739.1z"/>
</g>
</svg>
