<?xml version="1.0" encoding="utf-8"?>
<!-- Generator: Adobe Illustrator 27.0.0, SVG Export Plug-In . SVG Version: 6.00 Build 0)  -->
<svg version="1.1" xmlns="http://www.w3.org/2000/svg" xmlns:xlink="http://www.w3.org/1999/xlink" x="0px" y="0px"
	 viewBox="0 0 268.96 231.32" style="enable-background:new 0 0 268.96 231.32;" xml:space="preserve">
<style type="text/css">
	.st0{font-family:'MyriadPro-Regular';}
	.st1{font-size:8.5202px;}
	.st2{font-size:8.2347px;}
	.st3{font-size:20.5366px;}
	.st4{fill:none;stroke:#000000;stroke-miterlimit:10;}
	.st5{fill:none;stroke:#000000;stroke-width:0.75;stroke-miterlimit:10;stroke-dasharray:1;}
	.st6{fill:none;stroke:#000000;stroke-width:5;stroke-miterlimit:10;}
</style>
<g id="Camada_1">
</g>
<g id="Camada_12">
	<text transform="matrix(0.9743 0.2254 -0.2254 0.9743 155.6693 119.6537)" class="st0 st1">100%</text>
</g>
<g id="Camada_11">
	<text transform="matrix(0.9962 -0.0873 0.0873 0.9962 110.6575 119.9026)" class="st0 st1">50</text>
</g>
<g id="Camada_10">
	<text transform="matrix(0.8713 -0.4907 0.4907 0.8713 59.1684 141.8199)" class="st0 st2">0</text>
</g>
<g id="Camada_9">
	<text transform="matrix(1.6237 0 0 1 28.6393 145.199)" class="st0 st3">-</text>
</g>
<g id="Camada_8">
	<text transform="matrix(1 0 0 1 222.2087 145.199)" class="st0 st3">+</text>
</g>
<g id="Camada_7">
	<path class="st4" d="M112.68,110.76c-26.9,4.28-46.84,16.17-56.85,23.02"/>
</g>
<g id="Camada_6">
	<path class="st4" d="M141.83,109.47c11.91,0.75,21.27,2.86,27.72,4.71"/>
</g>
<g id="Camada_5">
	<path class="st4" d="M114.2,110.53c5.9-0.87,12.13-1.37,18.65-1.37c1.3,0,2.62,0.03,2.62,0.03c1.64,0.03,3.25,0.1,4.81,0.17"/>
</g>
<g id="Camada_4">
	<path class="st5" d="M41.46,119.9c9.28-7.32,43.04-32.14,92.41-31.13c14.19,0.29,26.95,2.65,38.11,6.02"/>
</g>
<g id="Camada_3">
	<path class="st6" d="M43.28,131c9.28-7.32,43.04-32.14,92.41-31.13c14.19,0.29,26.95,2.65,38.11,6.02"/>
</g>
<g id="Camada_2">
	<path class="st6" d="M182.52,108.81c20.07,7.44,33.8,17.54,39.69,22.2"/>
</g>
</svg>
